# xmcd
#
# Track frame offsets:
#	182
#	13457
#	30190
#	45195
#	60342
#	77937
#	90387
#	109870
#	128717
#	146297
#	164910
#	178550
#	191457
#
# Disc length: 2749
#
# Revision: 1
# Processed by: cddbd v1.5.1PL0 Copyright (c) Steve Scherf et al.
# Submitted via: VisiTrax 2.9.5.180 - For more info visit www.synapsa.com
# Normalized: r0:DSETVAR1
#
DISCID=9e0abb0d
DTITLE=Various Artist - Nashvilles Gift to the World
DYEAR=1994
DGENRE=
TTITLE0=Dwight Yoakam - Pocket of a clown
TTITLE1=Dan Seals - Love thing
TTITLE2=Iris Dement - The shores of Kordan
TTITLE3=Randy Travis - Before you kill us all
TTITLE4=Shawn camp - Bound to cr
TTITLE5=Faith Hill - Wild one
TTITLE6=Travis Tritt - Foolish pride
TTITLE7=Mark O'Connor - Devil comes back to Georgia
TTITLE8=Tish Hinojosa - Looking for my love in the pouring rain
TTITLE9=Little Texas - My love
TTITLE10=David Ball - Thinkin' problem
TTITLE11=Victoria Shaw - Cry wolf
TTITLE12=Greg Holland - Me and ou and the moon
EXTD=
EXTT0=
EXTT1=
EXTT2=
EXTT3=
EXTT4=
EXTT5=
EXTT6=
EXTT7=
EXTT8=
EXTT9=
EXTT10=
EXTT11=
EXTT12=
PLAYORDER=
